<?xml version="1.0" encoding="utf-8"?>
<!-- Generator: Adobe Illustrator 28.0.0, SVG Export Plug-In . SVG Version: 6.00 Build 0)  -->
<svg version="1.1" id="Capa_1" xmlns="http://www.w3.org/2000/svg" xmlns:xlink="http://www.w3.org/1999/xlink" x="0px" y="0px"
	 viewBox="0 0 229.1 71.6" style="enable-background:new 0 0 229.1 71.6;" xml:space="preserve">
<style type="text/css">
	.st0{fill-rule:evenodd;clip-rule:evenodd;fill:#6F08FE;}
	.st1{fill:#1D1D1B;}
</style>
<g id="SvgjsG4087" transform="matrix(1.1111974901070851,0,0,1.1111974901070851,-6.0715833360391525,-6.121586248151106)">
	<path class="st0" d="M37.7,69.9c-1.8,0-3.6-0.2-5.3-0.5l1.5-3.7c1.2,0.2,2.5,0.3,3.8,0.3c1.8,0,3.5-0.2,5.2-0.5l-4.3-4.7h-6.1h-1.3
		h-1.3V57h-4.2c-0.4,0.8-1.3,1.3-2.2,1.3c-1.4,0-2.6-1.2-2.6-2.6c0-1.4,1.2-2.6,2.6-2.6c1,0,1.8,0.5,2.2,1.3h4.2v-1.3v-2.6h2.6h12.9
		v0.6l3.2,3.4c0.2-0.1,0.5-0.1,0.7-0.1c1.4,0,2.6,1.2,2.6,2.6c0,1.4-1.2,2.6-2.6,2.6c-1.4,0-2.6-1.2-2.6-2.6c0-0.2,0-0.4,0.1-0.6
		l-3-3.3H32.5v5.2h7.7v0.5l5.5,6c4.7-1.4,8.9-4,12.2-7.4l-3.9-4.3h-0.9V41l-3.9-4.2c-1.1,0.9-2.2,1.9-3.3,2.9
		c-0.2,0.2-0.6,0.6-0.6,0.6l-1.2,0v0h-5.5c-0.4,0.8-1.3,1.3-2.2,1.3c-1.4,0-2.6-1.2-2.6-2.6s1.2-2.6,2.6-2.6c1,0,1.8,0.5,2.2,1.3
		h5.5V38l7.7-6.9V21h-5.2v5.5c0.8,0.4,1.3,1.3,1.3,2.2c0,1.4-1.2,2.6-2.6,2.6c-1.4,0-2.6-1.2-2.6-2.6c0-1,0.5-1.8,1.3-2.2V21v-1.3
		v-1.3h7.7v-5.1c-1-0.6-2.1-1.1-3.2-1.6c-0.4,0.2-0.9,0.3-1.3,0.3c-1.8,0-3.2-1.4-3.2-3.2c0-1.8,1.4-3.2,3.2-3.2
		c1.6,0,2.9,1.2,3.2,2.7c11.4,5,19.4,16.3,19.4,29.5C69.9,55.5,55.5,69.9,37.7,69.9z M59.6,39c-1.4,0-2.6-1.2-2.6-2.6
		c0-1,0.5-1.8,1.3-2.2V23.5h1.3h1.3h1.3c-2-3.4-4.6-6.3-7.8-8.6v18.9h-1.8c-0.4,0.4-0.9,0.8-1.4,1.2l4.7,5.1l-0.2,0.1h0v3.9h1.6
		c0.4-0.8,1.3-1.3,2.2-1.3c1.4,0,2.6,1.2,2.6,2.6c0,1.4-1.2,2.6-2.6,2.6c-1,0-1.8-0.5-2.2-1.3h-1.6v4.4l4,4.3
		c3.9-4.9,6.3-11,6.3-17.8c0-4.1-0.9-8.1-2.5-11.6h-2.7v8.1c0.8,0.4,1.3,1.3,1.3,2.2C62.2,37.9,61,39,59.6,39z M37.7,9.4
		c-0.9,0-1.7,0.1-2.6,0.1v8.2l3.2,3.4C38.5,21,38.7,21,39,21c1.4,0,2.6,1.2,2.6,2.6c0,1.4-1.2,2.6-2.6,2.6s-2.6-1.2-2.6-2.6
		c0-0.2,0-0.4,0.1-0.6l-1.8-2h-1.4l-4.5,4l3.5,3.8h0.3V29l0,0l0,0v16.4h13.2c0.4-0.8,1.3-1.3,2.2-1.3c1.4,0,2.6,1.2,2.6,2.6
		s-1.2,2.6-2.6,2.6c-1,0-1.8-0.5-2.2-1.3H32.5h-1.3h-1.3V30L18.1,17.2c-0.7,0.7-1.4,1.4-2,2.2l11,11.9h0.3v0.3l0,0l0,0v15.1v2.6
		h-2.6h-6.4h-1.3h-1.3v-6.4h-6c2,10.7,9.9,19.2,20.2,22.1l-1.4,3.6C15.2,64.7,5.5,52.3,5.5,37.7c0-17.8,14.4-32.2,32.2-32.2
		c1.8,0,3.5,0.2,5.1,0.4l-1.5,3.7C40.1,9.5,38.9,9.4,37.7,9.4z M14.5,21.5c-3.2,4.6-5.2,10.2-5.2,16.3c0,0.9,0,1.7,0.1,2.6h8.9v1.3
		v1.3v3.9h6.4V32.6l-4-4.4L17,33.4c0,0.1,0,0.3,0,0.4c0,1.4-1.2,2.6-2.6,2.6s-2.6-1.2-2.6-2.6s1.2-2.6,2.6-2.6
		c0.3,0,0.6,0.1,0.8,0.1l3.7-5.1L14.5,21.5z M32.5,9.9c-4.7,0.9-8.9,2.9-12.4,5.7L27,23l5.5-4.8V9.9z"/>
</g>
<g id="SvgjsG4088" transform="matrix(3.799383055349285,0,0,3.799383055349285,115.97313336994874,1.1672212482190218)">
	<path class="st1" d="M-7.9,9.1c0-3,1.7-5.4,4.8-5.4c3.2,0,4.9,2.4,4.9,5.4c0,3-1.6,5.4-4.8,5.4S-7.9,12.1-7.9,9.1z M-3.1,13.7
		c2.7,0,3.8-2.2,3.8-4.6c0-2.9-1.5-4.6-3.9-4.6c-2.6,0-3.8,2.2-3.8,4.6C-6.9,11.5-5.8,13.7-3.1,13.7z M4.3,14.2H3.4V3.9h0.9v6.4
		l3.6-3.5h1.2L6.3,9.5l3.1,4.7h-1l-2.8-4.1l-1.4,1.3C4.3,11.4,4.3,14.2,4.3,14.2z M15.5,11.5v-1.2c-0.7,0.3-1.5,0.4-2.2,0.4
		c-1.3,0.1-2.1,0.6-2.1,1.6c0,0.9,0.8,1.3,1.6,1.3C14.2,13.7,15.5,13,15.5,11.5z M12.9,10.1l1.2-0.2c0.3,0,0.8-0.1,1.1-0.2
		s0.3-0.5,0.3-0.8c0-0.9-0.5-1.5-1.8-1.5c-1.2,0-2,0.4-2.2,1.7h-0.9c0.1-1.7,1.4-2.4,3-2.4c1.5,0,2.7,0.6,2.7,2.3v4
		c0,0.7,0.2,0.8,0.9,0.6v0.7c-0.1,0-0.4,0.1-0.7,0.1c-0.1,0-0.3,0-0.4,0c-0.6-0.1-0.7-0.6-0.7-1.1c-0.7,0.8-1.7,1.2-2.8,1.2
		c-1.3,0-2.5-0.7-2.5-2.1C10.3,11.1,11.1,10.3,12.9,10.1z M19.5,10.6v3.6h-0.9V6.8h0.9v1.4h0C20,7,20.7,6.6,22,6.6v0.9
		C20,7.5,19.5,8.9,19.5,10.6L19.5,10.6z M26.3,14.4c-1.9,0-3.4-1.3-3.4-3.9c0-2.2,1.1-3.9,3.4-3.9c2.3,0,3.4,1.7,3.4,3.9
		C29.8,12.9,28.4,14.4,26.3,14.4z M28.9,10.5c0-1.7-0.7-3.1-2.5-3.1c-1.8,0-2.5,1.5-2.5,3.1c0,1.8,0.9,3.1,2.5,3.1
		C28.1,13.7,28.9,12.1,28.9,10.5z"/>
</g>
</svg>
