<svg viewBox="0 0 370 100.00110210932704" preserveAspectRatio="xMidYMid meet" class="css-8aabad" id="efegdgcg"><defs id="SvgjsDefs1001"></defs><g id="SvgjsG1007" featurekey="symbolFeature-0" transform="matrix(1.1111974901070851,0,0,1.1111974901070851,-6.0715833360391525,-6.121586248151106)" fill="#fff"><path xmlns="http://www.w3.org/2000/svg" fill-rule="evenodd" clip-rule="evenodd" d="M50.459,95.503c-2.519,0-4.975-0.259-7.383-0.655l2.064-5.143  c1.744,0.236,3.511,0.399,5.319,0.399c2.501,0,4.94-0.261,7.313-0.703l-5.998-6.497h-8.514h-1.8h-1.8v-5.398h-5.899  c-0.623,1.07-1.771,1.8-3.099,1.8c-1.988,0-3.601-1.612-3.601-3.601s1.612-3.6,3.601-3.6c1.329,0,2.477,0.728,3.099,1.8h5.899v-1.8  v-3.601h3.6H61.26v0.77l4.416,4.784c0.315-0.09,0.641-0.153,0.983-0.153c1.988,0,3.6,1.612,3.6,3.601c0,1.987-1.611,3.598-3.6,3.598  s-3.599-1.61-3.599-3.598c0-0.296,0.044-0.579,0.11-0.854l-4.197-4.547H43.261v7.2H54.06v0.768l7.725,8.366  c6.576-1.96,12.414-5.601,17.071-10.395l-5.483-5.939H72.06V55.081l-5.435-5.883c-1.503,1.309-3.101,2.702-4.651,4.053  c-0.299,0.263-0.893,0.779-0.893,0.779l-1.621,0.024v0.051h-7.699c-0.623,1.072-1.771,1.801-3.1,1.801c-1.988,0-3.6-1.612-3.6-3.601  s1.612-3.599,3.6-3.599c1.329,0,2.477,0.728,3.1,1.8h7.699v0.393l10.799-9.623V27.107h-7.198v7.7  c1.07,0.623,1.798,1.771,1.798,3.099c0,1.988-1.61,3.601-3.599,3.601c-1.987,0-3.6-1.612-3.6-3.601c0-1.329,0.728-2.477,1.8-3.099  v-7.7v-1.8v-1.8h10.799v-7.183c-1.426-0.825-2.89-1.593-4.421-2.238c-0.573,0.264-1.206,0.422-1.879,0.422  c-2.484,0-4.499-2.015-4.499-4.5c0-2.484,2.015-4.499,4.499-4.499c2.243,0,4.087,1.644,4.428,3.788  c15.918,6.93,27.07,22.741,27.07,41.209C95.457,75.357,75.312,95.503,50.459,95.503z M81.058,52.306  c-1.988,0-3.599-1.61-3.599-3.599c0-1.329,0.729-2.477,1.799-3.101V30.708h1.8h1.801h1.87c-2.753-4.731-6.471-8.829-10.869-12.054  v26.453h-2.542c-0.584,0.508-1.25,1.09-1.978,1.723l6.525,7.069l-0.271,0.207h0.064v5.4h2.3c0.622-1.072,1.77-1.8,3.099-1.8  c1.988,0,3.601,1.612,3.601,3.601c0,1.987-1.612,3.6-3.601,3.6c-1.329,0-2.477-0.729-3.099-1.8h-2.3v6.168l5.598,6.063  c5.489-6.791,8.802-15.415,8.802-24.831c0-5.783-1.266-11.257-3.498-16.199h-3.702v11.298c1.072,0.625,1.8,1.772,1.8,3.101  C84.658,50.695,83.046,52.306,81.058,52.306z M50.459,10.908c-1.214,0-2.412,0.076-3.598,0.183v11.386l4.416,4.784  c0.314-0.09,0.64-0.153,0.982-0.153c1.988,0,3.601,1.612,3.601,3.601c0,1.988-1.612,3.6-3.601,3.6s-3.599-1.612-3.599-3.6  c0-0.295,0.044-0.579,0.111-0.853l-2.535-2.748h-1.918l-6.35,5.536l4.86,5.263h0.431v0.468l0.018,0.02l-0.018,0.016v22.897H61.76  c0.622-1.073,1.77-1.801,3.099-1.801c1.988,0,3.601,1.612,3.601,3.601s-1.612,3.599-3.601,3.599c-1.329,0-2.477-0.729-3.099-1.799  H43.261h-1.8h-1.8V39.782L23.152,21.899c-1,0.953-1.942,1.963-2.839,3.015L35.63,41.507h0.431v0.467l0.018,0.02l-0.018,0.016v21.097  v3.599h-3.599h-9h-1.798h-1.8v-8.999h-8.327c2.744,14.895,13.823,26.857,28.229,30.896l-2.025,5.049  C19.088,88.158,5.464,70.936,5.464,50.507c0-24.852,20.146-44.997,44.996-44.997c2.447,0,4.831,0.248,7.172,0.624l-2.062,5.142  C53.893,11.06,52.196,10.908,50.459,10.908z M18.068,27.79c-4.534,6.425-7.206,14.251-7.206,22.717c0,1.214,0.063,2.412,0.171,3.599  h12.428v1.801v1.8v5.4h9V43.382l-5.627-6.095l-5.231,7.245c0.031,0.188,0.06,0.378,0.06,0.575c0,1.988-1.612,3.6-3.6,3.6  s-3.6-1.612-3.6-3.6s1.612-3.6,3.6-3.6c0.401,0,0.779,0.081,1.139,0.202l5.142-7.12L18.068,27.79z M43.261,11.594  c-6.497,1.195-12.418,3.998-17.389,7.942l9.656,10.461l7.733-6.742V11.594z"></path></g><g id="SvgjsG1008" featurekey="nameFeature-0" transform="matrix(2.374614409593303,0,0,2.374614409593303,114.96641671243592,-10.790973439726223)" fill="#fff"><path d="M2.12 25.64 c-0.04 -8.4 4.68 -15.2 13.28 -15.2 c9 0 13.56 6.76 13.56 15.2 c0 8.28 -4.56 15.12 -13.44 15.12 s-13.4 -6.84 -13.4 -15.12 z M15.56 38.44 c7.48 0 10.68 -6.08 10.68 -12.8 c0 -8 -4.12 -12.88 -10.76 -12.88 c-7.4 0 -10.64 6.2 -10.64 12.88 c0 6.8 3.2 12.8 10.72 12.8 z M36.24 40 l-2.4 0 l0 -28.8 l2.4 0 l0 17.92 l10.16 -9.84 l3.28 0 l-7.76 7.48 l8.68 13.24 l-2.68 0 l-7.76 -11.56 l-3.92 3.72 l0 7.84 z M67.56 32.36 l0 -3.24 c-2.04 0.84 -4.12 1 -6.2 1.16 c-3.64 0.28 -5.84 1.6 -5.84 4.4 c0 2.52 2.2 3.72 4.48 3.72 c3.8 0 7.56 -1.84 7.56 -6.04 z M60.2 28.36 l3.32 -0.44 c0.88 -0.08 2.36 -0.32 3.16 -0.68 s0.88 -1.44 0.88 -2.16 c0 -2.44 -1.44 -4.2 -5.16 -4.2 c-3.32 0 -5.6 1.08 -6.04 4.68 l-2.44 0 c0.36 -4.88 4 -6.84 8.52 -6.84 c4.2 0 7.52 1.64 7.52 6.44 l0 11.28 c0 1.88 0.48 2.32 2.52 1.6 l0 1.88 c-0.36 0.12 -1.2 0.4 -1.88 0.4 c-0.4 0 -0.72 -0.04 -1.08 -0.12 c-1.6 -0.24 -1.88 -1.64 -1.92 -3.08 c-2 2.24 -4.72 3.44 -7.72 3.44 c-3.64 0 -6.92 -1.96 -6.92 -5.96 c0 -3.48 2.4 -5.6 7.24 -6.24 z M78.76000000000002 29.84 l0 10.16 l-2.4 0 l0 -20.72 l2.4 0 l0 3.88 l0.08 0 c1.32 -3.32 3.28 -4.44 6.76 -4.44 l0 2.6 c-5.4 -0.12 -6.84 3.88 -6.84 8.52 z M97.80000000000001 40.56 c-5.28 -0.08 -9.6 -3.68 -9.6 -10.92 c0 -6.04 3.2 -10.92 9.6 -10.92 c6.48 0 9.6 4.84 9.6 10.92 c0 6.56 -3.8 10.92 -9.6 10.92 z M104.84 29.64 c-0.04 -4.88 -1.96 -8.76 -7.04 -8.76 c-5.04 0 -7.04 4.28 -7.04 8.76 c0 5.16 2.44 8.76 7.04 8.76 c5.04 0 7.04 -4.32 7.04 -8.76 z"></path></g></svg>